<svg width="1047" height="861" viewBox="0 0 1047 861" fill="none" xmlns="http://www.w3.org/2000/svg">
<path id="Body" d="M523.436 45.923L523.5 45.9257L523.564 45.923L775.324 35.2265L775.396 35.2234L775.468 35.2134L904.136 17.2431C905.864 17.0017 907.566 16.5963 909.217 16.0324L938.34 6.08952L938.357 6.08364L938.374 6.07735L946.817 2.96418C956.257 -0.516559 966.81 3.59393 971.408 12.5427C972.531 14.7291 973.24 17.1047 973.498 19.5493L1045.22 698.584C1045.99 705.837 1043.49 713.055 1038.39 718.273L991.151 766.659C989.949 767.89 988.62 768.992 987.187 769.945L919.8 814.758C917.458 816.315 914.866 817.458 912.137 818.135L819.174 841.216C817.722 841.577 816.241 841.804 814.748 841.894L523.5 859.497L232.252 841.894C230.759 841.804 229.278 841.577 227.826 841.216L134.863 818.135C132.134 817.458 129.542 816.315 127.2 814.758L59.813 769.945C58.38 768.992 57.0515 767.89 55.8493 766.659L8.60928 718.273C3.51423 713.055 1.00911 705.837 1.77525 698.584L73.5016 19.5493C73.7598 17.1047 74.4686 14.7291 75.5921 12.5427C80.1904 3.59393 90.7434 -0.516562 100.183 2.96417L108.626 6.07735L108.643 6.08364L108.66 6.08952L137.783 16.0324C139.434 16.5963 141.136 17.0017 142.864 17.2431L271.533 35.2134L271.604 35.2234L271.676 35.2265L523.436 45.923Z" stroke="#817040" stroke-width="3"/>
</svg>
