<svg width="998" height="802" viewBox="0 0 998 802" fill="none" xmlns="http://www.w3.org/2000/svg">
<path id="Rectangle 7" d="M498.938 43.4987L499 43.5013L499.062 43.4987L739.062 33.5433L739.133 33.5404L739.203 33.5309L861.797 16.8143C863.49 16.5835 865.157 16.1954 866.778 15.6552L894.474 6.42303L894.491 6.41738L894.508 6.41133L902.937 3.3768C911.735 0.209778 921.521 4.00968 925.875 12.2837C926.975 14.3728 927.67 16.6509 927.924 18.998L996.169 649.783C996.967 657.158 994.381 664.498 989.136 669.743L944.873 714.006C943.661 715.217 942.327 716.298 940.89 717.231L876.904 758.774C874.583 760.281 872.024 761.384 869.335 762.036L780.913 783.47C779.492 783.814 778.043 784.031 776.584 784.117L499 800.497L221.416 784.117C219.957 784.031 218.508 783.814 217.087 783.47L128.665 762.036C125.976 761.384 123.416 760.281 121.096 758.774L57.1099 717.231C55.6734 716.298 54.3386 715.217 53.1274 714.006L8.86422 669.743C3.61896 664.498 1.03258 657.158 1.83048 649.783L70.0762 18.998C70.3301 16.6509 71.0252 14.3728 72.1247 12.2837C76.4795 4.00968 86.2654 0.20978 95.0627 3.3768L103.492 6.41133L103.509 6.41738L103.526 6.42303L131.222 15.6552C132.843 16.1954 134.51 16.5835 136.203 16.8143L258.797 33.5309L258.867 33.5404L258.938 33.5433L498.938 43.4987Z" stroke="#817040" stroke-width="3"/>
</svg>
